<svg xmlns="http://www.w3.org/2000/svg" viewBox="0 0 64 64">
  <rect width="64" height="64" rx="14" fill="#08111f"/>
  <path d="M18 39c3.4 4.1 8 6.1 13.9 6.1 7.7 0 12.1-3.5 12.1-9.1 0-4.6-2.8-7-9.2-8.1l-5.2-.9c-3-.5-4.3-1.4-4.3-3 0-1.9 1.9-3.1 5.2-3.1 3.4 0 6.4 1.1 9 3.4l3.7-5.1c-3.2-2.8-7.3-4.3-12.5-4.3-7.2 0-11.8 3.6-11.8 9.4 0 4.8 3.1 7.5 9.4 8.6l5.4.9c2.8.5 3.9 1.4 3.9 2.9 0 1.9-1.8 2.9-5.4 2.9-4.1 0-7.3-1.5-10-4.5L18 39Z" fill="#f8fafc"/>
  <path d="M45.6 43.7 51 49l-4.4 4.4-5.3-5.4 4.3-4.3Z" fill="#14b8c8"/>
</svg>
